# xmcd
#
# Track frame offsets:
#	150
#	11265
#	23650
#	36044
#	46275
#	58742
#	72273
#	83504
#	94735
#	107061
#	119877
#	130449
#	139911
#	151678
#	163203
#	172817
#	183867
#	195343
#	207150
#	218249
#	231662
#	244092
#	255795
#	266532
#	279982
#	290962
#
# Disc length: 4037 seconds
#
# Revision: 0
# Processed by: cddbd v1.5.2PL0 Copyright (c) Steve Scherf et al.
# Submitted via: audiograbber 1.83.01
#
DISCID=6f0fc31a
DTITLE=Roy Orbison - The Monumental Roy Orbison - Volume 2
DYEAR=2013
DGENRE=Rock and Roll
TTITLE0=Loneliness
TTITLE1=Summersong
TTITLE2=Dance (Harlem Blues version)
TTITLE3=Lana
TTITLE4=Crying
TTITLE5=The Great Pretender
TTITLE6=Sunset
TTITLE7=She Wears My Ring
TTITLE8=Candy Man
TTITLE9=(They Call You) Gigolette (high C version)
TTITLE10=House Without Windows
TTITLE11=Wedding Day
TTITLE12=(They Call You) Gigolette
TTITLE13=Let The Good Times Roll
TTITLE14=How Are Things In Paradise?
TTITLE15=Blue Bayou
TTITLE16=Dream Baby (How Long Must I Dream?)
TTITLE17=The Actress
TTITLE18=No One Will Ever Know
TTITLE19=Love Star
TTITLE20=Evergreen
TTITLE21=Party Heart
TTITLE22=The Crowd
TTITLE23=Mama
TTITLE24=Working For The Man
TTITLE25=Léah
EXTD=Second of 4 volumes. Roy Orbison's Monument recordings 1959-1965, in order
EXTD=of production.
EXTT0=
EXTT1=
EXTT2=
EXTT3=
EXTT4=
EXTT5=
EXTT6=
EXTT7=
EXTT8=
EXTT9=
EXTT10=
EXTT11=
EXTT12=
EXTT13=
EXTT14=
EXTT15=
EXTT16=
EXTT17=
EXTT18=
EXTT19=
EXTT20=
EXTT21=
EXTT22=
EXTT23=
EXTT24=
EXTT25=
PLAYORDER=
